# xmcd
#
# Track frame offsets:
#	150
#	69970
#	124430
#	182610
#	238577
#	247315
#	260552
#	270662
#
# Disc length: 3718 seconds
#
# Revision: 0
# Processed by: cddbd v1.4PL0 Copyright (c) Steve Scherf et al.
# Submitted via: dBpowerAMP V4.0
#
DISCID=770e8408
DTITLE=The Beatles - The long and winding Road
DYEAR=1900
DGENRE=Blues
TTITLE0=Spur 1
TTITLE1=Spur 2
TTITLE2=Spur 3
TTITLE3=Spur 4
TTITLE4=Spur 5
TTITLE5=Spur 6
TTITLE6=Spur 7
TTITLE7=Spur 8
EXTD=Special Edition 12 CD´s
EXTT0=
EXTT1=
EXTT2=
EXTT3=
EXTT4=
EXTT5=
EXTT6=
EXTT7=
PLAYORDER=
